<svg width="563" height="408" viewBox="0 0 563 408" fill="none" xmlns="http://www.w3.org/2000/svg">
<path fill-rule="evenodd" clip-rule="evenodd" d="M29.8953 25.4828C13.4642 27.6123 1.8704 42.6586 3.99984 59.0897L29.4936 255.804C31.6231 272.236 46.6694 283.829 63.1005 281.7L259.815 256.206C276.246 254.077 287.84 239.03 285.711 222.599L260.217 25.8846C258.088 9.45343 243.041 -2.14038 226.61 -0.0109453L29.8953 25.4828ZM154.395 60.5112L115.153 65.5968L122.692 123.767L64.522 131.305L69.6076 170.547L127.777 163.008L135.316 221.178L174.558 216.092L167.019 157.922L225.189 150.384L220.103 111.142L161.933 118.681L154.395 60.5112Z" fill="#D9D9D9" fill-opacity="0.5" />
<path fill-rule="evenodd" clip-rule="evenodd" d="M338.956 116.2C322.701 112.994 306.924 123.572 303.718 139.828L265.334 334.438C262.128 350.694 272.707 366.47 288.962 369.676L483.573 408.06C499.828 411.267 515.605 400.688 518.811 384.433L557.195 189.822C560.401 173.567 549.822 157.79 533.567 154.584L338.956 116.2ZM484.395 296.72L492.052 257.898L338.135 227.54L330.478 266.362L484.395 296.72Z" fill="#D9D9D9" fill-opacity="0.5" />
</svg>
